<?xml version="1.0" encoding="utf-8"?>
<!-- Generator: Adobe Illustrator 23.0.3, SVG Export Plug-In . SVG Version: 6.00 Build 0)  -->
<svg version="1.1" id="レイヤー_1" xmlns="http://www.w3.org/2000/svg" xmlns:xlink="http://www.w3.org/1999/xlink" x="0px"
	 y="0px" viewBox="0 0 16 16" style="enable-background:new 0 0 16 16;" xml:space="preserve">
<style type="text/css">
	.st0{enable-background:new    ;}
</style>
<title>Slack icon</title>
<rect x="2" y="1" width="1" height="14"/>
<rect x="13" y="5" width="1" height="10"/>
<rect x="2" y="14" width="12" height="1"/>
<rect x="2" y="1" width="8" height="1"/>
<polygon points="8.7,1 13.6,5.9 14,5.5 14,4.9 10.1,1 "/>
<g class="st0">
	<path d="M4.8,5.4h3.8c0.7,0,1.3,0.2,1.7,0.6C10.8,6.3,11,6.8,11,7.5c0,0.7-0.2,1.2-0.6,1.5c-0.4,0.3-1,0.5-1.8,0.5H5.9v2.7H4.8V5.4
		z M5.9,6.1v2.6h2.5c0.4,0,0.8-0.1,1.1-0.3c0.3-0.2,0.4-0.6,0.4-1c0-0.4-0.1-0.8-0.4-1C9.2,6.3,8.8,6.1,8.4,6.1H5.9z"/>
</g>
</svg>
