<?xml version="1.0" encoding="utf-8"?>
<!-- Generator: Adobe Illustrator 23.0.3, SVG Export Plug-In . SVG Version: 6.00 Build 0)  -->
<svg version="1.1" id="レイヤー_1" xmlns="http://www.w3.org/2000/svg" xmlns:xlink="http://www.w3.org/1999/xlink" x="0px"
	 y="0px" viewBox="0 0 16 16" style="enable-background:new 0 0 16 16;" xml:space="preserve">
<title>Slack icon</title>
<rect x="2" y="1" width="1" height="14"/>
<rect x="13" y="5" width="1" height="10"/>
<rect x="2" y="14" width="12" height="1"/>
<rect x="2" y="1" width="8" height="1"/>
<polygon points="8.7,1 13.6,5.9 14,5.5 14,4.9 10.1,1 "/>
<g>
	<path d="M7.3,5.1c0-0.1,0.1-0.2,0.3-0.2c0.1,0,0.2,0,0.3,0.3c0.3,0.4,0.7,0.8,1.6,1.4c0.9,0.6,1.2,1,1.2,1.7c0,0.4-0.2,0.9-0.5,1.3
		c-0.3,0.4-0.7,0.7-0.9,0.7c-0.1,0-0.2-0.1-0.2-0.2c0-0.1,0-0.1,0.2-0.2C9.7,9.4,10,8.8,10,8.4c0-0.5-0.2-0.8-1-1.3
		C8.3,6.6,8.1,6.4,7.9,6.2v4.2c0,0.5-0.1,0.9-0.4,1.1C7.2,11.8,6.8,12,6.3,12c-0.6,0-1.1-0.4-1.1-0.9c0-0.5,0.5-1,1.3-1
		c0.3,0,0.6,0.1,0.9,0.2V5.1z"/>
</g>
</svg>
